<svg width="38" height="63" viewBox="0 0 38 63" fill="none" xmlns="http://www.w3.org/2000/svg">
<path d="M18.0345 0.971739C11.3367 7.68183 7.59023 17.0717 7.75478 26.7365L7.75478 30.1145L4.1634 30.1145L0.358868 36.9114L0.358804 45.359L7.75454 45.3591L7.75453 45.3592L8.13692 45.3592L9.98588 50.687L12.2789 50.687L12.279 56.2957L14.9285 56.2957L14.9285 50.6871L17.6411 50.6872L17.641 62.5646L20.2905 62.5646L20.2905 50.6871L23.003 50.6871V56.296L25.6525 56.296L25.6525 50.6871L27.9456 50.6872L29.7947 45.3592L37.5728 45.3592L37.573 36.9125L33.778 30.1148L30.1771 30.1149L30.1771 26.737C30.2617 22.1367 29.4191 17.4113 27.7401 13.0708C24.5518 4.82816 19.5149 0.687465 18.9721 0.0323614L18.0345 0.971739ZM3.00832 37.6025L5.71666 32.7642L7.7546 32.7641L7.75454 42.7097L3.00825 42.7095L3.00832 37.6025ZM26.0606 48.0377L11.8709 48.0375L10.9416 45.3593L26.9902 45.3592L26.0606 48.0377ZM32.2228 32.7645L34.9235 37.602L34.9234 42.7099L30.1772 42.7099V32.7647L32.2228 32.7645ZM27.5278 26.6999L27.5278 30.1151L27.5275 30.1151L27.5275 42.7095L10.4042 42.7096C10.4042 41.4472 10.4043 31.3328 10.4043 30.1145C10.4043 29.7203 10.4044 31.454 10.4041 26.7018C10.257 18.2094 13.3658 9.94946 18.9722 3.8244C24.5829 9.95339 27.6871 18.2124 27.5278 26.6999Z" fill="white"/>
</svg>
